<svg xmlns="http://www.w3.org/2000/svg" viewBox="0 0 2100 980" fill="none">
  <defs>
    <linearGradient id="blueBox" x1="0" y1="0" x2="1" y2="1">
      <stop offset="0%" stop-color="#beddff" />
      <stop offset="100%" stop-color="#95c2fb" />
    </linearGradient>
    <linearGradient id="orangeBox" x1="0" y1="0" x2="1" y2="1">
      <stop offset="0%" stop-color="#ffb067" />
      <stop offset="100%" stop-color="#f58634" />
    </linearGradient>
    <marker id="arrow" markerWidth="10" markerHeight="10" refX="8" refY="5" orient="auto">
      <path d="M0 0L10 5L0 10Z" fill="#475569" />
    </marker>
    <style>
      .route-label{font:700 20px 'Segoe UI',Arial,sans-serif;fill:#0f172a}
      .caption{font:600 16px 'Segoe UI',Arial,sans-serif;fill:#334155}
      .branch-label{font:700 14px 'Segoe UI',Arial,sans-serif;fill:#475569;letter-spacing:.06em}
      .small{font:500 13px 'Segoe UI',Arial,sans-serif;fill:#475569}
      .box-text{font:700 24px 'Segoe UI',Arial,sans-serif;fill:#0f172a}
      .white-text{font:700 18px 'Segoe UI',Arial,sans-serif;fill:#475569}
      .general-text{font:700 22px 'Segoe UI',Arial,sans-serif;fill:#ffffff}
      .process-axis{font:800 18px 'Segoe UI',Arial,sans-serif;fill:#334155;letter-spacing:.08em}
      .flow{stroke:#475569;stroke-width:3;fill:none;marker-end:url(#arrow)}
      .note{fill:#f1f5f9;stroke:#cbd5e1;stroke-width:2;rx:18}
      .white-box{fill:#f8fafc;stroke:#0f7ab3;stroke-width:4;rx:18}
      .blue-box{fill:url(#blueBox);stroke:#2b7bbb;stroke-width:4;rx:18}
      .orange-box{fill:url(#orangeBox);stroke:#c45c11;stroke-width:4;rx:18}
      .diamond{fill:#fff7bf;stroke:#b9a400;stroke-width:3}
      .event{fill:#fffbe6;stroke:#9a8d4f;stroke-width:3}
      .panel-title{font:800 30px 'Segoe UI',Arial,sans-serif;fill:#0f172a}
    </style>
  </defs>

  <rect width="2100" height="980" fill="#ffffff"/>
  <text transform="translate(34 860) rotate(-90)" class="process-axis">PROCESO POSTCOSECHA POR MALLA</text>

  <text x="64" y="116" class="route-label">Preclasificacion / GV sin pelar</text>
  <text x="64" y="334" class="route-label">Preclasificacion / Directo</text>
  <text x="64" y="592" class="route-label">Apertura / GV pelado</text>
  <text x="64" y="812" class="route-label">Apertura / Apertura</text>
  <text x="242" y="162" class="small">GV SIN PELAR</text>
  <text x="242" y="181" class="small">(SIN PELAR PATAS)</text>
  <text x="252" y="236" class="small">DIRECTO</text>
  <text x="216" y="255" class="small">(SIN PELAR PATAS)</text>
  <text x="70" y="430" class="small">PRECLASIFICACION</text>
  <text x="84" y="449" class="small">(SIN PELAR PATAS)</text>
  <text x="116" y="468" class="small">(CON HOJA)</text>
  <text x="82" y="515" class="small">APERTURA</text>
  <text x="70" y="534" class="small">(PELADO PATAS)</text>
  <text x="104" y="553" class="small">(SIN HOJA)</text>
  <text x="238" y="648" class="small">GV PELADO</text>
  <text x="212" y="667" class="small">(PELADO LAS</text>
  <text x="238" y="686" class="small">PATAS)</text>
  <text x="220" y="742" class="small">APERTURA</text>
  <text x="206" y="761" class="small">(PELADO LAS</text>
  <text x="234" y="780" class="small">PATAS)</text>

  <rect x="220" y="140" width="110" height="72" rx="18" class="blue-box"/><text x="275" y="184" text-anchor="middle" class="box-text">B1</text>
  <polygon points="390,176 420,146 450,176 420,206" class="diamond"/>
  <circle cx="520" cy="130" r="20" class="event"/><text x="520" y="136" text-anchor="middle" class="small">L</text>
  <rect x="560" y="98" width="160" height="72" rx="18" class="white-box"/><text x="640" y="142" text-anchor="middle" class="white-text">PELADO TALLO</text>
  <rect x="780" y="98" width="118" height="72" rx="18" class="blue-box"/><text x="839" y="142" text-anchor="middle" class="box-text">B1AB</text>
  <circle cx="970" cy="130" r="20" class="event"/><text x="970" y="136" text-anchor="middle" class="small">L</text>
  <rect x="1014" y="98" width="106" height="72" rx="18" class="blue-box"/><text x="1067" y="142" text-anchor="middle" class="box-text">B2</text>
  <polygon points="1178,134 1208,104 1238,134 1208,164" class="diamond"/>
  <rect x="1308" y="40" width="148" height="64" rx="18" class="white-box"/><text x="1382" y="80" text-anchor="middle" class="white-text">CLASIFICADO</text>
  <rect x="1308" y="116" width="148" height="64" rx="18" class="white-box"/><text x="1382" y="156" text-anchor="middle" class="white-text">CLASIFICADO</text>
  <rect x="1308" y="192" width="148" height="64" rx="18" class="white-box"/><text x="1382" y="232" text-anchor="middle" class="white-text">CLASIFICADO</text>
  <rect x="1514" y="36" width="108" height="72" rx="18" class="blue-box"/><text x="1568" y="80" text-anchor="middle" class="box-text">B3</text>
  <rect x="1514" y="112" width="108" height="72" rx="18" class="blue-box"/><text x="1568" y="156" text-anchor="middle" class="box-text">B3</text>
  <rect x="1514" y="188" width="108" height="72" rx="18" class="blue-box"/><text x="1568" y="232" text-anchor="middle" class="box-text">B3</text>
  <rect x="1738" y="110" width="116" height="84" rx="18" class="orange-box"/><text x="1796" y="161" text-anchor="middle" class="general-text">GENERAL</text>

  <rect x="560" y="316" width="160" height="72" rx="18" class="white-box"/><text x="640" y="360" text-anchor="middle" class="white-text">PELADO TALLO</text>
  <rect x="780" y="316" width="118" height="72" rx="18" class="blue-box"/><text x="839" y="360" text-anchor="middle" class="box-text">B1AB</text>
  <circle cx="970" cy="348" r="20" class="event"/><text x="970" y="354" text-anchor="middle" class="small">L</text>
  <rect x="1014" y="316" width="106" height="72" rx="18" class="blue-box"/><text x="1067" y="360" text-anchor="middle" class="box-text">B2</text>
  <polygon points="1178,352 1208,322 1238,352 1208,382" class="diamond"/>
  <rect x="1308" y="258" width="148" height="64" rx="18" class="white-box"/><text x="1382" y="298" text-anchor="middle" class="white-text">CLASIFICADO</text>
  <rect x="1308" y="334" width="148" height="64" rx="18" class="white-box"/><text x="1382" y="374" text-anchor="middle" class="white-text">CLASIFICADO</text>
  <rect x="1308" y="410" width="148" height="64" rx="18" class="white-box"/><text x="1382" y="450" text-anchor="middle" class="white-text">CLASIFICADO</text>
  <rect x="1514" y="254" width="108" height="72" rx="18" class="blue-box"/><text x="1568" y="298" text-anchor="middle" class="box-text">B3</text>
  <rect x="1514" y="330" width="108" height="72" rx="18" class="blue-box"/><text x="1568" y="374" text-anchor="middle" class="box-text">B3</text>
  <rect x="1514" y="406" width="108" height="72" rx="18" class="blue-box"/><text x="1568" y="450" text-anchor="middle" class="box-text">B3</text>
  <rect x="1738" y="328" width="116" height="84" rx="18" class="orange-box"/><text x="1796" y="379" text-anchor="middle" class="general-text">GENERAL</text>

  <rect x="220" y="620" width="110" height="72" rx="18" class="blue-box"/><text x="275" y="664" text-anchor="middle" class="box-text">B1</text>
  <polygon points="390,656 420,626 450,656 420,686" class="diamond"/>
  <rect x="560" y="620" width="118" height="72" rx="18" class="blue-box"/><text x="619" y="664" text-anchor="middle" class="box-text">B1C</text>
  <circle cx="750" cy="656" r="20" class="event"/><text x="750" y="662" text-anchor="middle" class="small">L</text>
  <circle cx="826" cy="656" r="20" class="event"/><text x="826" y="662" text-anchor="middle" class="small">L</text>
  <rect x="870" y="620" width="106" height="72" rx="18" class="blue-box"/><text x="923" y="664" text-anchor="middle" class="box-text">B2</text>
  <polygon points="1034,656 1064,626 1094,656 1064,686" class="diamond"/>
  <rect x="1170" y="560" width="178" height="72" rx="18" class="white-box"/><text x="1259" y="600" text-anchor="middle" class="white-text">PELADO TALLOS</text><text x="1259" y="622" text-anchor="middle" class="white-text">Y CLASIFICADO</text>
  <rect x="1170" y="636" width="178" height="72" rx="18" class="white-box"/><text x="1259" y="676" text-anchor="middle" class="white-text">PELADO TALLOS</text><text x="1259" y="698" text-anchor="middle" class="white-text">Y CLASIFICADO</text>
  <rect x="1170" y="712" width="178" height="72" rx="18" class="white-box"/><text x="1259" y="752" text-anchor="middle" class="white-text">PELADO TALLOS</text><text x="1259" y="774" text-anchor="middle" class="white-text">Y CLASIFICADO</text>
  <rect x="1408" y="556" width="110" height="72" rx="18" class="blue-box"/><text x="1463" y="600" text-anchor="middle" class="box-text">B2A</text>
  <rect x="1408" y="632" width="110" height="72" rx="18" class="blue-box"/><text x="1463" y="676" text-anchor="middle" class="box-text">B2A</text>
  <rect x="1408" y="708" width="110" height="72" rx="18" class="blue-box"/><text x="1463" y="752" text-anchor="middle" class="box-text">B2A</text>
  <rect x="1738" y="626" width="116" height="84" rx="18" class="orange-box"/><text x="1796" y="677" text-anchor="middle" class="general-text">GENERAL</text>

  <rect x="560" y="826" width="118" height="72" rx="18" class="blue-box"/><text x="619" y="870" text-anchor="middle" class="box-text">B1C</text>
  <circle cx="750" cy="862" r="20" class="event"/><text x="750" y="868" text-anchor="middle" class="small">L</text>
  <rect x="794" y="826" width="106" height="72" rx="18" class="blue-box"/><text x="847" y="870" text-anchor="middle" class="box-text">B2</text>
  <polygon points="958,862 988,832 1018,862 988,892" class="diamond"/>
  <rect x="1088" y="780" width="178" height="72" rx="18" class="white-box"/><text x="1177" y="820" text-anchor="middle" class="white-text">PELADO TALLOS</text><text x="1177" y="842" text-anchor="middle" class="white-text">Y CLASIFICADO</text>
  <rect x="1088" y="856" width="178" height="72" rx="18" class="white-box"/><text x="1177" y="896" text-anchor="middle" class="white-text">PELADO TALLOS</text><text x="1177" y="918" text-anchor="middle" class="white-text">Y CLASIFICADO</text>
  <rect x="1330" y="776" width="110" height="72" rx="18" class="blue-box"/><text x="1385" y="820" text-anchor="middle" class="box-text">B2A</text>
  <rect x="1330" y="852" width="110" height="72" rx="18" class="blue-box"/><text x="1385" y="896" text-anchor="middle" class="box-text">B2A</text>
  <rect x="1738" y="844" width="116" height="84" rx="18" class="orange-box"/><text x="1796" y="895" text-anchor="middle" class="general-text">GENERAL</text>

  <text x="504" y="44" class="caption">MAX 10 DIAS</text>
  <text x="922" y="196" class="caption">HIDRATACION</text>
  <text x="922" y="414" class="caption">HIDRATACION</text>
  <text x="702" y="706" class="caption">MAX 10 DIAS</text>
  <text x="800" y="706" class="caption">HIDRATACION</text>
  <text x="706" y="910" class="caption">HIDRATACION</text>
  <text x="1146" y="22" class="branch-label">ARCOIRIS</text>
  <text x="1140" y="98" class="branch-label">TINTURADO</text>
  <text x="1156" y="174" class="branch-label">BLANCO</text>
  <text x="1146" y="210" class="branch-label">ARCOIRIS</text>
  <text x="1140" y="286" class="branch-label">TINTURADO</text>
  <text x="1156" y="362" class="branch-label">BLANCO</text>
  <text x="1048" y="478" class="branch-label">ARCOIRIS</text>
  <text x="1042" y="554" class="branch-label">TINTURADO</text>
  <text x="1058" y="630" class="branch-label">BLANCO</text>
  <text x="968" y="680" class="branch-label">ARCOIRIS</text>
  <text x="962" y="756" class="branch-label">TINTURADO</text>
  <text x="978" y="832" class="branch-label">BLANCO</text>

  <rect x="1596" y="26" width="242" height="84" class="note"/><text x="1618" y="58" class="small">TODO LO QUE SEA</text><text x="1618" y="80" class="small">B3 YA NO APLICA</text><text x="1618" y="102" class="small">GRADO NI TALLO</text>
  <rect x="1548" y="520" width="260" height="84" class="note"/><text x="1570" y="552" class="small">TODO LO QUE SEA</text><text x="1570" y="574" class="small">B2A YA NO APLICA</text><text x="1570" y="596" class="small">GRADO NI TALLO</text>

  <path d="M330 176H390" class="flow"/>
  <path d="M450 176H520" class="flow"/>
  <path d="M720 134H780" class="flow"/>
  <path d="M898 134H970" class="flow"/>
  <path d="M990 134H1014" class="flow"/>
  <path d="M1120 134H1178" class="flow"/>
  <path d="M1238 134H1308" class="flow"/>
  <path d="M1456 72H1514" class="flow"/>
  <path d="M1456 148H1514" class="flow"/>
  <path d="M1456 224H1514" class="flow"/>
  <path d="M1622 72C1660 72 1684 152 1738 152" class="flow"/>
  <path d="M1622 148H1738" class="flow"/>
  <path d="M1622 224C1660 224 1684 152 1738 152" class="flow"/>

  <path d="M450 176V352H540" class="flow"/>
  <path d="M720 352H780" class="flow"/>
  <path d="M898 352H970" class="flow"/>
  <path d="M990 352H1014" class="flow"/>
  <path d="M1120 352H1178" class="flow"/>
  <path d="M1238 352H1308" class="flow"/>
  <path d="M1456 290H1514" class="flow"/>
  <path d="M1456 366H1514" class="flow"/>
  <path d="M1456 442H1514" class="flow"/>
  <path d="M1622 290C1660 290 1684 370 1738 370" class="flow"/>
  <path d="M1622 366H1738" class="flow"/>
  <path d="M1622 442C1660 442 1684 370 1738 370" class="flow"/>

  <path d="M330 656H390" class="flow"/>
  <path d="M450 656H560" class="flow"/>
  <path d="M678 656H750" class="flow"/>
  <path d="M770 656H826" class="flow"/>
  <path d="M846 656H870" class="flow"/>
  <path d="M976 656H1034" class="flow"/>
  <path d="M1094 656H1170" class="flow"/>
  <path d="M1348 592H1408" class="flow"/>
  <path d="M1348 668H1408" class="flow"/>
  <path d="M1348 744H1408" class="flow"/>
  <path d="M1518 592C1580 592 1640 668 1738 668" class="flow"/>
  <path d="M1518 668H1738" class="flow"/>
  <path d="M1518 744C1580 744 1640 668 1738 668" class="flow"/>

  <path d="M450 656V862H560" class="flow"/>
  <path d="M678 862H750" class="flow"/>
  <path d="M770 862H794" class="flow"/>
  <path d="M900 862H958" class="flow"/>
  <path d="M1018 862H1088" class="flow"/>
  <path d="M1266 816H1330" class="flow"/>
  <path d="M1266 892H1330" class="flow"/>
  <path d="M1440 816C1580 816 1630 886 1738 886" class="flow"/>
  <path d="M1440 892H1738" class="flow"/>

  <path d="M1854 152L1940 152L1940 490L2038 490" class="flow"/>
  <path d="M1854 370L1940 370" class="flow"/>
  <path d="M1854 668L1940 668" class="flow"/>
  <path d="M1854 886L1940 886L1940 490" class="flow"/>
</svg>
